# xmcd CD database file
#
# Track frame offsets:
#	150
#	18889
#	43030
#	54924
#	80229
#	109654
#	136370
#	156269
#	175545
#
# Disc length: 2587 seconds
#
# Revision: 0
# Processed by: cddbd v1.4PL0 Copyright (c) Steve Scherf et al.
# Submitted via: CDex 1.50beta10
#
DISCID=6a0a1909
DTITLE=Trivuc - Catagroove
DYEAR=2002
DGENRE=Jazz
TTITLE0=Lino
TTITLE1=Dies d'alegries
TTITLE2=Crepuscle with Nellie
TTITLE3=00:00
TTITLE4=Bye-Ya
TTITLE5=Valor per volar
TTITLE6=Afro Blue
TTITLE7=Paramonk
TTITLE8=Freedom Jazz Dance
EXTD=YEAR: 2002
EXTT0=
EXTT1=
EXTT2=
EXTT3=
EXTT4=
EXTT5=
EXTT6=
EXTT7=
EXTT8=
PLAYORDER=
